<mxfile host="65bd71144e">
    <diagram id="DwLUzIq5FXTMwAl1xHiL" name="Page-1">
        <mxGraphModel dx="1386" dy="592" grid="1" gridSize="10" guides="1" tooltips="1" connect="1" arrows="1" fold="1" page="1" pageScale="1" pageWidth="1100" pageHeight="850" background="#191724" math="1" shadow="0">
            <root>
                <mxCell id="0"/>
                <mxCell id="1" parent="0"/>
                <mxCell id="3" value="&lt;font style=&quot;font-size: 28px;&quot;&gt;Dekod-&lt;br style=&quot;font-size: 28px;&quot;&gt;ierung&lt;/font&gt;" style="shape=step;perimeter=stepPerimeter;whiteSpace=wrap;html=1;fixedSize=1;fillStyle=auto;fillColor=#007FFF;gradientColor=#0000FF;gradientDirection=east;fontColor=#FFFFFF;strokeColor=#FFFFFF;fontSize=28;" parent="1" vertex="1">
                    <mxGeometry x="390" y="210" width="120" height="80" as="geometry"/>
                </mxCell>
                <mxCell id="5" value="\(S_{Bin}\)" style="rhombus;whiteSpace=wrap;html=1;fontSize=28;gradientColor=#666666;fillStyle=cross-hatch;fillColor=#B3B3B3;gradientDirection=east;fontColor=#FFFFFF;strokeColor=#FFFFFF;" parent="1" vertex="1">
                    <mxGeometry x="310" y="210" width="80" height="80" as="geometry"/>
                </mxCell>
                <mxCell id="6" value="\(S\)" style="rhombus;whiteSpace=wrap;html=1;fontSize=28;fillStyle=cross-hatch;fillColor=#636363;gradientColor=#B3B3B3;gradientDirection=west;fontColor=#FFFFFF;strokeColor=#FFFFFF;" parent="1" vertex="1">
                    <mxGeometry x="520" y="210" width="80" height="80" as="geometry"/>
                </mxCell>
                <mxCell id="7" value="&lt;span style=&quot;font-size: 28px;&quot;&gt;Komp-ression&lt;/span&gt;" style="shape=step;perimeter=stepPerimeter;whiteSpace=wrap;html=1;fixedSize=1;gradientColor=#0000FF;fillColor=#007FFF;gradientDirection=east;fontColor=#FFFFFF;strokeColor=#FFFFFF;fontSize=28;" parent="1" vertex="1">
                    <mxGeometry x="600" y="210" width="120" height="80" as="geometry"/>
                </mxCell>
                <mxCell id="8" value="\(F\)" style="rhombus;whiteSpace=wrap;html=1;fontSize=28;fillStyle=cross-hatch;fillColor=#666666;gradientColor=#B3B3B3;gradientDirection=west;fontColor=#FFFFFF;strokeColor=#FFFFFF;" parent="1" vertex="1">
                    <mxGeometry x="730" y="210" width="80" height="80" as="geometry"/>
                </mxCell>
                <mxCell id="9" value="&lt;font style=&quot;font-size: 28px;&quot;&gt;Kod-&lt;br style=&quot;font-size: 28px;&quot;&gt;ierung&lt;/font&gt;" style="shape=step;perimeter=stepPerimeter;whiteSpace=wrap;html=1;fixedSize=1;gradientColor=#0000FF;fillColor=#007FFF;gradientDirection=east;fontColor=#FFFFFF;strokeColor=#FFFFFF;fontSize=28;" parent="1" vertex="1">
                    <mxGeometry x="810" y="210" width="120" height="80" as="geometry"/>
                </mxCell>
                <mxCell id="10" value="\(F_{Bin}\)" style="rhombus;whiteSpace=wrap;html=1;fontSize=28;fillStyle=cross-hatch;fillColor=#B3B3B3;gradientColor=#666666;gradientDirection=east;fontColor=#FFFFFF;strokeColor=#FFFFFF;" parent="1" vertex="1">
                    <mxGeometry x="940" y="210" width="80" height="80" as="geometry"/>
                </mxCell>
            </root>
        </mxGraphModel>
    </diagram>
</mxfile>